<?xml version="1.0" standalone="no"?>
<!DOCTYPE svg PUBLIC "-//W3C//DTD SVG 20010904//EN"
 "http://www.w3.org/TR/2001/REC-SVG-20010904/DTD/svg10.dtd">
<svg version="1.0" xmlns="http://www.w3.org/2000/svg"
 width="4284.000000pt" height="2256.000000pt" viewBox="0 0 4284.000000 2256.000000"
 preserveAspectRatio="xMidYMid meet">
<metadata>
Created by potrace 1.10, written by Peter Selinger 2001-2011
</metadata>
<g transform="translate(0.000000,2256.000000) scale(0.100000,-0.100000)"
fill="#000000" stroke="none">
<path d="M2028 22313 l-28 -4 0 -209 0 -208 35 -6 c42 -8 75 0 75 18 0 7 -11
23 -25 36 -24 23 -25 27 -25 161 0 122 2 139 18 151 28 20 35 37 22 53 -12 15
-20 16 -72 8z"/>
<path d="M2256 22307 c-29 -21 -16 -51 22 -55 30 -3 32 -1 32 26 0 18 -6 32
-16 36 -20 8 -17 8 -38 -7z"/>
<path d="M3730 22313 c-20 -7 -49 -44 -50 -62 0 -8 -7 -23 -17 -33 -15 -17
-15 -19 0 -36 13 -14 17 -39 17 -109 0 -78 2 -91 18 -95 37 -10 42 1 42 95 0
72 4 94 17 110 17 18 17 19 -1 32 -18 14 -17 25 6 56 6 9 8 24 5 33 -7 17 -12
18 -37 9z"/>
<path d="M5595 22313 c-34 -10 -67 -36 -91 -75 -36 -56 -34 -148 4 -203 36
-51 64 -65 134 -65 52 0 62 3 97 35 31 29 40 45 50 92 22 119 -30 207 -129
217 -25 3 -54 2 -65 -1z m84 -64 c37 -13 61 -53 61 -102 0 -112 -90 -163 -164
-93 -31 29 -36 39 -36 81 0 59 25 103 65 114 41 12 38 12 74 0z"/>
<path d="M6993 22313 c-7 -2 -13 -18 -13 -34 0 -28 2 -30 33 -27 25 2 33 8 35
27 5 32 -21 48 -55 34z"/>
<path d="M8283 22314 c-7 -3 -13 -16 -13 -30 0 -17 7 -25 25 -30 l25 -6 0
-149 0 -149 -25 -10 c-47 -18 -27 -60 28 -60 48 0 49 5 48 220 0 112 -2 205
-4 207 -8 7 -72 12 -84 7z"/>
<path d="M3802 22144 c2 -100 7 -169 13 -171 27 -8 33 17 36 172 l4 160 -28 3
-27 3 2 -167z"/>
<path d="M5847 22303 c-11 -11 -8 -321 3 -328 6 -3 19 -4 30 0 16 5 20 17 22
73 l3 67 50 -4 c76 -5 85 -13 85 -76 0 -50 2 -55 26 -61 37 -10 57 13 44 51
-39 120 -39 120 -19 146 28 36 23 64 -16 104 l-36 35 -93 0 c-51 0 -96 -3 -99
-7z m187 -69 c20 -19 20 -24 0 -52 -13 -18 -25 -22 -74 -22 -63 0 -68 4 -62
56 l4 34 58 0 c40 0 64 -5 74 -16z"/>
<path d="M5180 22289 c-77 -28 -93 -219 -25 -293 19 -21 33 -26 70 -26 55 0
89 30 106 94 15 54 5 159 -18 191 -29 39 -82 53 -133 34z m74 -54 c8 -8 18
-35 21 -59 14 -91 -18 -166 -64 -151 -47 14 -53 179 -8 210 27 19 32 19 51 0z"/>
<path d="M6763 22283 c-7 -2 -13 -13 -13 -24 0 -11 -5 -28 -12 -38 -9 -14 -8
-23 5 -42 13 -17 17 -45 17 -104 0 -89 8 -105 52 -105 37 0 48 27 20 49 -29
21 -35 137 -9 156 21 15 22 41 3 48 -8 3 -16 18 -18 34 -3 27 -20 37 -45 26z"/>
<path d="M2430 22220 c-14 -4 -38 -5 -53 -2 l-28 5 3 -124 c3 -116 4 -124 23
-124 18 0 20 8 23 86 2 72 6 90 23 105 15 14 24 16 37 7 14 -8 17 -27 17 -96
0 -48 5 -91 10 -96 6 -6 21 -8 34 -4 21 5 23 10 21 72 -4 98 -2 109 21 122 39
20 52 -7 50 -104 -2 -72 1 -85 15 -91 33 -13 41 14 35 114 -7 118 -16 135 -71
135 -24 0 -45 -6 -50 -14 -7 -12 -14 -12 -43 2 -19 10 -37 17 -39 16 -1 -1
-14 -4 -28 -9z"/>
<path d="M2770 22223 c-29 -11 -50 -36 -50 -59 0 -34 14 -37 40 -9 25 27 59
32 78 13 20 -20 14 -38 -13 -38 -43 0 -104 -32 -116 -62 -29 -71 62 -130 128
-83 14 10 24 12 28 5 8 -12 65 -13 65 -1 0 5 -7 14 -15 21 -11 9 -15 34 -15
95 0 68 -3 85 -19 99 -20 19 -85 30 -111 19z m80 -151 c0 -45 -69 -76 -91 -41
-13 22 -11 27 19 43 38 21 72 20 72 -2z"/>
<path d="M3000 22218 c-49 -26 -77 -127 -49 -181 25 -47 48 -60 100 -55 53 5
63 -6 31 -35 -24 -22 -46 -21 -83 0 -34 20 -55 8 -44 -27 15 -46 115 -55 159
-15 27 25 28 26 29 168 l1 142 -30 1 c-16 1 -42 4 -59 8 -18 4 -40 1 -55 -6z
m74 -59 c46 -36 27 -139 -26 -139 -57 0 -82 97 -36 140 27 25 29 25 62 -1z"/>
<path d="M3255 22221 c-46 -20 -60 -49 -60 -128 0 -70 2 -76 29 -100 25 -21
37 -24 76 -21 59 6 90 32 90 75 0 18 5 42 12 52 13 22 -7 74 -40 104 -23 21
-79 30 -107 18z m69 -56 c30 -23 13 -45 -34 -45 -27 0 -43 5 -47 15 -6 17 23
44 47 44 8 0 23 -6 34 -14z m26 -97 c0 -21 -33 -48 -58 -48 -31 0 -63 27 -55
46 7 18 113 20 113 2z"/>
<path d="M3948 22224 c-9 -3 -24 -17 -33 -30 -30 -46 4 -74 40 -34 21 23 57
26 75 5 17 -20 6 -31 -37 -39 -21 -3 -53 -15 -70 -26 -27 -16 -33 -26 -33 -53
0 -20 8 -42 21 -56 18 -19 28 -22 63 -17 66 10 70 10 91 3 11 -4 26 -3 34 2
12 8 12 13 -2 35 -12 18 -17 47 -17 98 -1 45 -6 80 -14 90 -13 18 -86 31 -118
22z m92 -152 c0 -38 -68 -74 -90 -47 -24 29 11 63 68 64 15 1 22 -5 22 -17z"/>
<path d="M4165 22197 c-33 -33 -35 -39 -35 -99 0 -58 3 -67 29 -92 24 -23 36
-27 72 -25 46 4 60 -10 39 -36 -16 -19 -64 -19 -80 0 -17 20 -49 19 -57 -2
-10 -25 41 -63 85 -63 58 0 75 8 100 45 20 32 22 47 22 165 l0 130 -39 0 c-21
0 -52 3 -70 6 -26 5 -36 1 -66 -29z m90 -33 c47 -31 27 -144 -25 -144 -57 0
-74 109 -23 148 21 15 19 15 48 -4z"/>
<path d="M6312 22223 l-53 -4 3 -122 3 -122 25 0 c25 0 25 2 28 87 3 79 5 88
27 102 19 13 30 14 45 6 18 -9 20 -21 20 -100 0 -49 4 -91 8 -94 5 -3 19 -2
31 1 22 6 23 9 17 82 -3 42 -5 86 -6 99 0 31 -43 72 -72 70 -13 -1 -47 -3 -76
-5z"/>
<path d="M6560 22224 c-8 -2 -25 -19 -37 -37 -44 -64 -24 -196 31 -211 98 -26
156 21 156 126 0 49 -4 62 -27 88 -28 31 -84 46 -123 34z m81 -65 c17 -17 20
-30 16 -65 -6 -54 -21 -74 -57 -74 -20 0 -31 8 -45 33 -21 39 -15 77 15 107
26 26 45 25 71 -1z"/>
<path d="M7188 22224 c-3 -3 -25 -6 -49 -7 l-44 -2 0 -120 c0 -113 1 -120 20
-120 18 0 20 8 23 88 3 80 5 88 27 103 43 28 55 6 55 -97 0 -91 6 -105 40 -94
18 6 20 15 20 95 0 80 2 90 21 100 17 9 25 8 41 -7 18 -16 19 -26 13 -99 -6
-72 -5 -82 11 -88 33 -13 41 13 35 114 -7 118 -16 135 -71 135 -24 0 -45 -6
-50 -14 -7 -12 -14 -12 -43 2 -39 19 -41 19 -49 11z"/>
<path d="M7488 22210 c-27 -21 -38 -63 -19 -74 4 -3 19 6 31 19 26 28 61 32
80 10 17 -20 6 -32 -36 -39 -93 -18 -127 -71 -86 -134 14 -21 77 -26 111 -9
17 9 33 11 37 6 7 -12 64 -12 64 0 0 5 -7 14 -15 21 -11 9 -15 34 -15 95 0 96
-12 114 -82 122 -34 4 -49 0 -70 -17z m102 -139 c0 -43 -69 -70 -92 -37 -13
18 -9 25 20 40 39 22 72 20 72 -3z"/>
<path d="M7743 22220 c-61 -25 -83 -137 -40 -201 21 -31 27 -34 80 -37 61 -3
68 -9 39 -35 -24 -21 -60 -22 -83 -1 -22 20 -49 12 -49 -15 0 -53 122 -69 168
-23 19 19 21 33 22 154 1 73 1 139 1 146 -1 7 -13 12 -28 11 -16 -1 -41 1 -58
5 -16 3 -40 1 -52 -4z m71 -61 c19 -15 26 -30 26 -55 0 -69 -50 -105 -92 -67
-28 25 -25 106 5 126 29 21 30 21 61 -4z"/>
<path d="M7995 22221 c-46 -20 -60 -49 -60 -128 0 -69 2 -76 28 -99 61 -52
167 -19 167 52 0 19 5 43 12 53 14 23 -2 68 -36 100 -26 24 -81 35 -111 22z
m71 -57 c33 -22 15 -44 -37 -44 -45 0 -57 14 -33 41 21 23 37 24 70 3z m24
-96 c0 -21 -33 -48 -60 -48 -30 0 -50 16 -50 42 0 15 9 18 55 18 35 0 55 -4
55 -12z"/>
<path d="M2254 22208 c-4 -6 -8 -58 -9 -115 -1 -94 0 -105 18 -115 35 -18 42
7 39 130 -3 102 -5 112 -22 112 -10 0 -22 -5 -26 -12z"/>
<path d="M6987 22213 c-4 -3 -7 -57 -7 -119 0 -106 1 -112 22 -117 12 -3 25
-4 30 -1 4 3 8 59 8 125 0 118 0 119 -23 119 -13 0 -27 -3 -30 -7z"/>
<path d="M4488 22158 c-12 -33 3 -38 115 -38 62 0 119 4 127 10 9 5 19 5 26
-1 7 -5 58 -8 115 -7 96 3 104 4 104 23 0 19 -8 20 -104 23 -56 1 -108 -1
-115 -6 -6 -5 -20 -6 -31 -1 -34 13 -232 11 -237 -3z"/>
<path d="M4491 22066 c-11 -13 -11 -19 -1 -31 17 -20 193 -21 230 -2 22 11 28
11 39 0 9 -10 38 -13 114 -11 101 3 102 3 102 28 0 21 -4 25 -30 23 -86 -5
-362 -3 -399 2 -32 5 -45 3 -55 -9z"/>
<path d="M3406 21944 c-3 -9 -4 -20 0 -25 7 -12 234 -12 253 0 8 5 11 16 8 25
-9 24 -252 24 -261 0z"/>
<path d="M5025 21563 c-22 -2 -44 -8 -50 -12 -5 -5 -27 -11 -47 -15 -20 -4
-50 -13 -65 -21 -15 -8 -32 -15 -37 -15 -19 0 -150 -95 -196 -143 -28 -30 -65
-85 -85 -127 -20 -41 -41 -82 -45 -91 -5 -9 -12 -34 -16 -55 -3 -22 -11 -47
-16 -57 -13 -26 -31 -198 -31 -307 0 -100 19 -355 29 -380 3 -8 12 -51 19 -95
28 -162 70 -338 120 -505 9 -30 21 -73 26 -95 6 -22 14 -47 19 -56 5 -9 12
-33 15 -53 4 -20 11 -38 15 -41 5 -3 11 -23 15 -45 4 -22 10 -42 15 -45 5 -3
11 -23 15 -45 4 -22 11 -42 16 -46 5 -3 9 -13 9 -22 0 -9 7 -30 15 -46 8 -15
15 -33 15 -38 0 -5 9 -28 19 -51 34 -76 32 -90 -21 -124 -98 -64 -225 -191
-278 -278 -13 -22 -26 -42 -29 -45 -8 -7 -36 -65 -56 -114 -18 -46 -45 -169
-45 -207 0 -25 -2 -26 -77 -32 -77 -6 -232 4 -264 18 -10 3 -19 2 -23 -3 -12
-21 8 -48 50 -67 71 -32 97 -75 44 -75 -11 0 -36 -7 -57 -16 -21 -9 -47 -20
-58 -25 -58 -23 -122 -51 -135 -58 -9 -5 -30 -12 -48 -15 -17 -4 -34 -12 -37
-17 -4 -5 -14 -9 -23 -9 -9 0 -30 -7 -45 -15 -15 -8 -45 -17 -65 -21 -20 -4
-41 -10 -47 -14 -5 -4 -32 -13 -60 -19 -27 -7 -77 -19 -110 -27 -167 -42 -295
-55 -495 -51 -185 4 -241 11 -380 47 -43 11 -169 68 -180 81 -3 3 -12 10 -22
15 -31 17 -114 99 -160 159 -46 61 -89 138 -128 230 -11 28 -24 57 -29 65 -5
9 -12 31 -16 50 -4 19 -11 41 -16 50 -29 56 -85 359 -100 545 -5 66 -14 145
-19 176 -6 30 -10 124 -10 207 l0 152 688 2 687 3 0 615 0 615 -1399 3 c-1026
1 -1402 -1 -1412 -9 -20 -17 -21 -1201 -1 -1218 10 -8 213 -12 698 -13 l684
-3 6 -247 c4 -136 10 -259 13 -274 4 -14 13 -76 21 -138 24 -183 73 -409 105
-481 5 -11 12 -31 16 -45 13 -48 102 -225 143 -284 52 -77 140 -167 210 -215
62 -42 189 -96 266 -112 28 -5 73 -15 100 -21 65 -13 472 -13 550 0 120 21
291 59 320 72 11 5 54 18 95 30 41 12 89 28 105 35 17 7 53 21 80 30 28 10 55
22 60 25 6 4 21 11 35 15 35 11 161 72 184 90 41 31 47 21 44 -67 -3 -96 10
-109 46 -42 39 74 150 215 166 212 11 -2 17 -22 22 -66 4 -35 15 -85 24 -110
40 -107 158 -270 247 -344 29 -23 54 -45 57 -48 17 -18 96 -73 160 -111 97
-57 117 -66 265 -128 50 -22 201 -69 263 -82 82 -18 205 -40 277 -49 94 -12
512 -12 600 0 144 20 318 54 345 69 9 5 35 12 58 16 23 4 44 11 48 16 3 5 12
9 20 9 13 0 41 11 129 50 11 5 43 19 70 31 28 12 70 35 94 51 49 33 66 27 76
-25 3 -18 12 -54 20 -82 14 -51 29 -122 40 -187 3 -21 12 -38 18 -38 12 0 43
79 49 125 5 35 43 30 66 -7 19 -31 161 -173 257 -258 174 -153 417 -305 630
-394 22 -9 47 -21 56 -26 9 -5 33 -12 53 -15 20 -4 38 -11 41 -15 3 -5 24 -11
48 -15 23 -4 47 -10 52 -14 6 -3 39 -12 75 -18 203 -39 425 -57 534 -43 45 5
117 14 161 19 138 17 379 70 450 100 11 5 49 19 85 31 36 12 81 29 100 37 19
8 44 18 55 23 160 66 500 252 685 373 152 101 290 207 290 223 0 24 26 27 82
10 56 -17 139 -32 248 -47 85 -11 505 -10 595 1 72 9 195 31 277 49 62 13 213
60 263 82 148 62 168 71 265 128 85 51 132 85 238 175 33 29 162 188 162 200
0 4 10 23 23 44 71 114 105 313 76 439 -20 85 -71 220 -88 233 -4 3 -18 23
-31 45 -60 98 -209 242 -319 308 -29 18 -74 45 -100 60 -41 25 -85 47 -188 93
-17 8 -36 14 -42 14 -6 0 -19 4 -29 9 -27 15 -140 51 -160 51 -10 0 -22 4 -28
9 -21 20 -266 58 -465 73 -219 16 -483 -5 -699 -55 -94 -22 -152 -38 -175 -47
-11 -4 -49 -18 -85 -31 -36 -12 -89 -35 -118 -51 -29 -15 -56 -28 -61 -28 -5
0 -22 28 -39 63 -57 118 -92 197 -92 208 0 18 -41 70 -51 64 -5 -4 -9 -40 -9
-81 0 -68 -2 -74 -21 -74 -11 0 -46 22 -77 48 -94 80 -289 202 -432 268 -30
14 -82 39 -116 55 -33 16 -68 29 -77 29 -9 0 -18 4 -22 9 -3 5 -20 13 -37 17
-18 3 -39 10 -48 15 -20 10 -106 35 -150 44 -19 3 -44 10 -55 15 -83 37 -600
49 -765 18 -162 -31 -260 -55 -315 -78 -11 -4 -42 -16 -70 -25 -80 -28 -134
-51 -260 -112 -136 -65 -424 -243 -499 -308 -16 -14 -32 -25 -35 -25 -3 0 -20
-13 -38 -28 -18 -15 -49 -40 -70 -57 -21 -16 -61 -51 -89 -77 -51 -49 -82 -58
-106 -35 -22 21 -191 100 -283 132 -27 9 -59 21 -70 25 -106 43 -374 90 -555
97 -74 2 -138 8 -143 12 -10 10 114 254 149 293 9 9 14 24 11 33 -5 12 -12 13
-34 4 -15 -6 -30 -13 -33 -17 -13 -17 -71 -52 -87 -52 -17 0 -18 13 -15 197 5
302 -30 645 -92 898 -8 33 -20 83 -27 110 -6 28 -15 55 -19 60 -4 6 -11 26
-15 45 -4 19 -11 41 -16 50 -5 8 -18 38 -29 65 -71 169 -159 290 -279 384 -55
43 -87 59 -176 92 -51 19 -237 32 -320 22z m219 -63 c50 -6 95 -14 100 -19 6
-5 22 -12 36 -16 77 -24 196 -127 264 -228 52 -80 136 -249 136 -277 0 -5 4
-18 9 -28 13 -23 38 -108 47 -157 3 -22 10 -44 14 -50 4 -5 11 -37 14 -70 4
-33 11 -71 16 -85 21 -55 62 -503 75 -802 6 -148 4 -151 -72 -93 -48 37 -83
45 -83 21 0 -8 14 -36 31 -61 48 -71 131 -237 125 -251 -3 -8 -46 -14 -143
-17 -162 -6 -424 -46 -448 -68 -5 -5 -17 -9 -27 -9 -20 0 -133 -36 -160 -51
-10 -5 -23 -9 -28 -9 -25 0 -226 -98 -242 -117 -17 -21 -45 3 -53 43 -3 20
-10 44 -15 53 -5 9 -18 45 -30 81 -12 36 -26 74 -30 85 -4 11 -25 74 -45 140
-21 66 -41 129 -45 140 -5 11 -13 38 -18 60 -6 22 -18 65 -27 95 -72 241 -128
545 -144 780 -11 178 9 426 40 482 5 10 9 23 9 30 0 7 17 46 37 88 85 169 260
289 453 310 98 11 108 11 204 0z m-2054 -1165 l0 -565 -1356 2 -1356 3 1 560
c0 308 0 561 1 563 0 1 610 2 1355 2 l1355 0 0 -565z m5950 -525 c61 -8 131
-22 240 -50 57 -14 183 -57 235 -80 22 -9 55 -23 74 -31 57 -23 281 -138 291
-150 3 -3 34 -23 70 -44 106 -64 240 -155 240 -164 0 -6 -65 -31 -128 -47 -8
-2 -12 -14 -10 -26 3 -21 10 -23 88 -29 47 -4 101 -12 120 -18 19 -6 52 -11
72 -11 20 0 39 -4 42 -8 6 -10 -30 -52 -44 -52 -32 0 -201 -123 -278 -202 -62
-64 -152 -185 -152 -204 0 -8 -4 -14 -10 -14 -5 0 -10 -6 -10 -12 0 -7 -6 -25
-14 -39 -38 -73 -51 -144 -51 -274 1 -140 8 -172 67 -295 46 -96 83 -145 183
-245 80 -80 230 -195 254 -195 5 0 11 -3 13 -7 3 -7 132 -74 183 -94 102 -42
178 -68 200 -69 11 0 26 -4 33 -8 16 -11 -2 -28 -93 -92 -38 -27 -74 -53 -80
-57 -5 -5 -28 -20 -50 -33 -22 -13 -44 -28 -50 -33 -29 -25 -211 -137 -222
-137 -7 0 -13 -4 -13 -10 0 -5 -5 -10 -11 -10 -6 0 -38 -16 -71 -36 -61 -37
-288 -154 -300 -154 -4 0 -36 -13 -71 -30 -36 -16 -70 -30 -76 -30 -6 0 -19
-4 -29 -9 -69 -38 -327 -108 -507 -137 -229 -38 -532 -31 -736 16 -62 14 -277
80 -299 91 -8 4 -53 26 -100 48 -159 75 -319 174 -440 270 -24 20 -56 45 -69
56 -14 11 -73 65 -131 121 -58 56 -124 118 -148 139 -23 21 -41 43 -39 49 2 6
35 13 73 16 62 5 69 7 72 28 2 12 -2 24 -10 26 -55 14 -138 41 -163 51 -16 7
-47 20 -68 29 -21 9 -44 16 -52 16 -23 0 -28 20 -9 41 9 10 21 19 26 19 16 0
121 85 173 141 85 90 141 172 179 259 46 106 51 133 51 270 0 137 -5 164 -51
270 -56 130 -188 292 -299 368 -22 15 -42 30 -45 33 -3 3 -13 8 -22 12 -33 12
-25 22 87 112 28 22 59 48 69 57 11 10 38 30 60 45 23 16 47 34 54 41 26 24
267 180 342 221 85 47 191 99 265 131 28 11 59 25 70 30 20 9 193 64 294 94
29 9 66 16 81 16 15 0 40 5 56 10 78 27 417 33 594 10z m-2950 -501 c80 -5
152 -12 160 -15 8 -3 49 -12 90 -19 119 -22 280 -63 294 -76 6 -5 16 -9 24 -9
8 0 28 -6 45 -14 18 -8 55 -24 82 -36 160 -68 310 -166 414 -269 60 -60 143
-174 168 -231 13 -30 28 -64 33 -75 17 -37 34 -140 34 -205 0 -128 -40 -251
-119 -370 -42 -62 -148 -173 -220 -228 -33 -26 -65 -51 -71 -57 -6 -5 -28 -19
-50 -30 -21 -11 -41 -22 -44 -25 -3 -3 -21 -13 -40 -22 -224 -108 -430 -171
-650 -199 -41 -5 -103 -14 -136 -19 -79 -13 -369 -13 -448 0 -33 5 -95 14
-136 19 -112 15 -288 53 -321 71 -9 5 -33 12 -53 15 -20 4 -39 11 -42 16 -3 5
-12 9 -21 9 -28 0 -245 105 -325 157 -85 56 -186 142 -236 202 -26 31 -50 58
-53 61 -7 7 -72 118 -87 150 -39 83 -47 127 -47 250 0 124 6 152 48 250 16 37
79 141 102 170 40 49 174 177 217 206 23 16 49 34 55 41 11 10 231 120 288
143 11 5 52 19 90 30 39 12 79 26 90 30 51 22 247 59 375 71 58 5 139 14 180
19 41 4 95 6 120 4 24 -2 110 -9 190 -15z m5644 -10 c116 -15 302 -52 341 -69
11 -4 52 -18 90 -30 84 -25 85 -26 205 -84 298 -143 502 -349 576 -581 14 -45
19 -89 19 -180 0 -118 -6 -149 -48 -245 -13 -29 -78 -143 -86 -150 -3 -3 -27
-30 -53 -61 -50 -60 -151 -146 -236 -202 -80 -52 -297 -157 -325 -157 -9 0
-18 -4 -21 -9 -3 -5 -22 -12 -42 -16 -20 -3 -44 -10 -53 -15 -33 -18 -209 -56
-321 -71 -41 -5 -103 -14 -136 -19 -79 -13 -369 -13 -448 0 -33 5 -95 14 -136
19 -115 15 -203 31 -225 41 -11 5 -39 12 -62 15 -24 4 -45 10 -48 15 -3 4 -22
11 -42 15 -21 4 -42 10 -48 15 -5 4 -21 11 -35 15 -14 4 -53 20 -87 36 -34 16
-64 29 -67 29 -3 0 -47 25 -98 56 -316 191 -482 431 -482 694 0 65 17 168 34
205 5 11 19 42 31 70 25 56 106 170 167 232 96 98 265 210 412 271 14 6 46 20
72 31 26 12 52 21 58 21 5 0 18 4 28 9 36 20 141 48 267 71 28 6 73 15 100 21
127 27 518 32 699 8z"/>
<path d="M1135 20520 c-16 -11 -38 -36 -48 -57 -19 -35 -19 -38 -2 -69 18 -34
64 -58 126 -69 37 -6 89 -38 89 -56 0 -24 -42 -49 -82 -49 -49 1 -73 15 -87
53 -7 19 -18 27 -35 27 -69 0 -20 -108 60 -130 91 -26 187 15 196 82 11 73
-19 102 -136 132 -69 18 -76 22 -76 45 0 28 33 51 71 51 28 0 42 -8 66 -35 34
-38 45 -42 62 -21 18 22 -3 62 -48 91 -49 30 -112 32 -156 5z"/>
<path d="M1495 20530 c-120 -5 -120 -5 -120 -30 0 -24 3 -25 55 -25 l55 0 0
-150 0 -150 30 0 30 0 5 150 5 150 34 -3 c18 -2 44 -1 57 2 33 9 32 44 -2 56
-14 6 -26 9 -27 8 -1 -1 -56 -4 -122 -8z"/>
<path d="M1761 20519 c-12 -13 -25 -37 -30 -53 -5 -17 -19 -56 -31 -86 -12
-30 -25 -66 -30 -80 -4 -14 -15 -38 -24 -55 -28 -53 -17 -82 28 -71 16 4 24
16 32 48 l9 43 58 5 c32 3 62 3 66 0 4 -3 16 -26 26 -52 14 -39 22 -48 42 -48
31 0 39 24 20 63 -31 67 -47 108 -47 126 0 10 -3 21 -7 25 -5 4 -17 35 -28 68
-11 35 -29 67 -42 75 -19 13 -23 12 -42 -8z m44 -120 c9 -17 15 -40 13 -52 -2
-18 -9 -22 -36 -20 -42 2 -49 9 -34 33 7 11 12 28 12 38 0 41 24 42 45 1z"/>
<path d="M2403 20533 c-86 -3 -114 -7 -124 -19 -20 -24 15 -46 66 -42 l40 3 2
-140 c1 -77 2 -146 2 -153 1 -9 12 -12 34 -10 l32 3 0 150 0 150 54 -4 c50 -3
70 6 71 31 0 14 -32 38 -48 36 -9 -1 -67 -4 -129 -5z"/>
<path d="M1982 20518 c-6 -8 -9 -72 -7 -173 3 -167 9 -187 49 -172 14 6 17 18
14 74 l-3 68 67 3 c61 3 68 1 80 -20 7 -13 15 -45 18 -73 5 -46 7 -50 34 -53
32 -4 49 14 36 37 -4 9 -11 35 -15 58 -3 22 -12 49 -19 59 -11 15 -10 23 5 48
37 60 14 128 -49 145 -53 15 -197 14 -210 -1z m196 -54 c27 -19 29 -55 3 -78
-14 -13 -33 -16 -82 -14 l-64 3 -3 39 c-2 21 -1 44 2 52 8 20 115 19 144 -2z"/>
<path d="M5790 18861 c-33 -8 -61 -30 -83 -63 -21 -34 -21 -52 -1 -87 16 -27
72 -52 150 -66 39 -7 67 -36 58 -59 -8 -20 -55 -46 -84 -46 -27 0 -80 37 -80
55 0 23 -38 39 -56 24 -21 -17 -10 -53 26 -93 29 -30 33 -31 110 -31 74 0 82
2 107 28 23 23 28 36 27 74 -1 55 -30 86 -97 103 -82 22 -90 25 -101 43 -20
32 4 52 65 52 49 0 55 -3 67 -27 9 -19 21 -28 38 -28 20 0 24 5 24 28 0 26
-14 47 -52 78 -18 14 -86 23 -118 15z"/>
<path d="M6070 18832 c-19 -9 -41 -30 -49 -47 -35 -73 -22 -218 25 -268 20
-22 34 -27 71 -27 39 0 50 5 79 35 26 27 34 47 40 91 14 118 -11 195 -73 220
-42 18 -51 18 -93 -4z m83 -56 c17 -18 29 -117 19 -169 -5 -26 -15 -43 -34
-55 -25 -15 -28 -15 -47 2 -44 40 -52 155 -14 212 17 27 54 32 76 10z"/>
<path d="M4930 18272 c-68 -46 -85 -82 -84 -178 0 -76 3 -84 33 -123 60 -76
166 -80 234 -9 46 49 52 98 11 98 -19 0 -28 -7 -35 -29 -23 -65 -101 -81 -150
-32 -27 27 -29 35 -29 101 0 66 2 74 29 101 23 22 39 29 70 29 34 0 44 -5 67
-35 28 -37 70 -48 80 -20 9 22 -35 81 -73 99 -44 21 -121 20 -153 -2z"/>
<path d="M5314 18282 c-13 -8 -44 -66 -44 -82 0 -7 -6 -26 -14 -43 -7 -18 -24
-61 -37 -97 -13 -36 -29 -76 -35 -89 -17 -33 -7 -53 25 -49 20 2 28 11 36 40
15 53 25 59 91 56 55 -3 59 -5 67 -33 15 -50 23 -60 51 -63 22 -3 26 1 26 22
0 13 -6 37 -14 53 -20 38 -65 163 -74 203 -7 35 -42 90 -55 90 -7 0 -17 -4
-23 -8z m45 -149 c11 -40 1 -63 -28 -63 -36 0 -43 15 -31 59 14 55 45 57 59 4z"/>
<path d="M6140 18275 c-8 -10 -11 -54 -8 -154 3 -132 4 -141 27 -165 45 -48
153 -58 199 -18 44 39 53 75 50 209 -3 106 -6 128 -20 137 -34 21 -41 -5 -39
-138 2 -125 2 -126 -25 -151 -34 -32 -83 -33 -110 -4 -16 18 -19 38 -20 145
-1 83 -6 129 -14 139 -16 19 -24 19 -40 0z"/>
<path d="M6935 18283 c-55 -2 -103 -7 -108 -12 -12 -12 -12 -330 0 -342 5 -5
62 -8 129 -7 112 3 119 4 122 24 5 34 -17 41 -98 34 -107 -9 -110 -7 -110 53
l0 50 83 -5 c104 -6 117 -3 117 28 0 30 -23 36 -121 32 l-74 -3 -3 43 -3 42
101 0 c84 0 102 3 107 16 7 20 -9 49 -28 49 -8 1 -59 -1 -114 -2z"/>
<path d="M5523 18263 c-4 -10 -6 -90 -3 -178 l5 -160 25 0 c24 0 25 3 28 73
l3 72 74 0 c64 0 78 3 102 24 24 21 28 31 27 74 -1 84 -44 112 -173 112 -67 0
-82 -3 -88 -17z m163 -39 c33 -9 48 -51 29 -80 -13 -21 -23 -24 -75 -24 l-60
0 0 49 c0 30 5 51 13 54 17 7 68 8 93 1z"/>
<path d="M5812 18253 c3 -25 7 -28 43 -29 22 -1 46 -2 52 -3 9 -1 13 -41 15
-148 l3 -148 30 0 30 0 -4 144 c-3 157 -1 163 53 154 19 -2 39 1 51 10 16 13
17 17 6 31 -11 13 -37 16 -148 16 l-134 0 3 -27z"/>
<path d="M6474 18267 c-2 -7 -3 -87 -2 -177 l3 -165 30 0 30 0 -4 73 -3 72 67
0 c82 0 94 -12 95 -87 0 -48 2 -53 25 -59 36 -9 59 2 50 24 -4 9 -12 42 -18
72 -5 30 -15 58 -21 62 -7 5 -6 16 7 37 19 33 22 83 6 113 -18 33 -71 48 -169
48 -65 0 -92 -4 -96 -13z m200 -58 c68 -54 2 -99 -131 -90 -14 1 -19 92 -6
104 3 4 30 7 58 7 38 0 60 -6 79 -21z"/>
<path d="M11335 18862 c-70 -8 -120 -83 -96 -145 11 -29 86 -67 131 -67 34 0
80 -35 80 -60 0 -21 -46 -50 -79 -50 -35 0 -69 22 -81 51 -14 33 -34 43 -61
29 -23 -13 -23 -11 -3 -53 24 -50 70 -77 131 -77 94 0 153 43 153 109 -1 61
-44 92 -165 117 -37 8 -40 11 -40 44 l0 35 52 3 c48 3 53 1 74 -28 39 -51 79
-36 60 23 -16 48 -82 77 -156 69z"/>
<path d="M11646 18826 c-9 -14 -32 -33 -52 -41 -42 -17 -44 -49 -4 -51 56 -3
53 4 46 -118 l-7 -114 27 -6 c15 -4 31 -3 36 2 5 5 7 85 6 178 -3 146 -5 169
-19 172 -9 2 -24 -9 -33 -22z"/>
<path d="M11133 18275 c-11 -8 -28 -40 -38 -72 -10 -32 -22 -65 -26 -73 -4 -8
-24 -55 -44 -103 -40 -93 -39 -112 6 -105 18 2 27 14 39 48 l16 45 64 0 64 0
16 -45 c13 -37 20 -46 43 -48 23 -3 27 0 27 22 0 14 -7 42 -16 63 -9 21 -21
47 -25 58 -15 36 -40 109 -48 140 -9 36 -31 73 -47 79 -6 2 -21 -2 -31 -9z
m47 -147 c12 -43 4 -58 -30 -58 -34 0 -42 15 -31 58 18 65 44 65 61 0z"/>
<path d="M11737 18272 c-37 -23 -61 -75 -52 -118 5 -27 14 -38 45 -54 22 -11
48 -20 59 -20 31 0 99 -30 105 -46 13 -35 -26 -65 -87 -66 -32 0 -46 5 -64 26
-13 15 -23 34 -23 42 0 28 -45 12 -48 -17 -6 -50 67 -109 134 -109 112 0 175
84 126 165 -18 29 -62 49 -146 65 -39 7 -53 31 -38 64 10 22 18 26 51 26 33 0
47 -7 75 -35 34 -34 66 -39 66 -10 0 81 -124 134 -203 87z"/>
<path d="M12126 18283 c-55 -2 -106 -8 -113 -14 -17 -15 -17 -330 0 -341 7 -4
65 -8 130 -8 100 0 119 2 124 16 3 9 2 24 -4 33 -8 13 -26 15 -105 13 -105 -4
-106 -3 -104 63 l1 30 85 1 c119 2 120 2 120 23 0 36 -25 44 -109 37 -90 -7
-105 1 -95 53 l7 31 99 0 c82 0 100 3 105 16 7 20 -9 49 -28 49 -8 1 -59 -1
-113 -2z"/>
<path d="M10750 18265 c-9 -11 -11 -40 -8 -98 3 -45 2 -113 -2 -152 -8 -79 0
-98 39 -93 25 3 26 5 26 73 l0 70 77 5 c100 6 123 26 123 103 0 84 -36 107
-164 107 -58 0 -82 -4 -91 -15z m164 -45 c34 -12 44 -54 21 -80 -14 -16 -31
-20 -77 -20 l-58 0 0 49 c0 30 5 51 13 54 21 9 75 7 101 -3z"/>
<path d="M11353 18268 c-4 -7 -8 -86 -8 -176 0 -147 2 -163 18 -168 34 -11 45
12 39 81 l-5 65 64 0 c82 -1 99 -13 99 -73 0 -63 7 -77 40 -77 31 0 41 15 29
45 -4 11 -8 33 -8 48 -1 15 -7 41 -15 56 -13 25 -13 31 5 60 10 17 19 41 19
52 0 37 -31 76 -70 88 -52 15 -197 14 -207 -1z m191 -59 c30 -24 33 -45 9 -71
-13 -14 -31 -18 -85 -18 l-68 0 0 49 c0 56 4 59 71 60 33 1 54 -5 73 -20z"/>
<path d="M6602 20318 c-9 -9 -12 -65 -12 -209 0 -196 0 -197 23 -203 58 -15
112 5 85 32 -7 7 -17 12 -24 12 -19 0 -24 36 -24 178 l0 132 26 10 c19 7 25
16 22 33 -2 18 -10 23 -43 25 -23 2 -46 -3 -53 -10z"/>
<path d="M6842 20318 c-21 -21 -14 -47 14 -54 31 -8 47 6 42 37 -3 27 -36 37
-56 17z"/>
<path d="M8291 20304 c-12 -15 -21 -33 -21 -40 0 -8 -6 -23 -12 -34 -10 -16
-10 -24 1 -42 9 -15 13 -48 12 -102 -2 -82 4 -96 42 -96 15 0 17 11 17 90 0
55 5 98 12 110 10 16 10 24 0 41 -11 18 -11 24 2 38 9 10 16 27 16 39 0 32
-43 29 -69 -4z"/>
<path d="M8397 20323 c-4 -3 -7 -78 -7 -165 0 -135 2 -160 16 -165 8 -3 20 -1
25 4 14 14 20 304 7 321 -11 13 -31 16 -41 5z"/>
<path d="M10151 20301 c-12 -16 -21 -34 -21 -41 0 -7 -6 -26 -14 -43 -7 -18
-21 -54 -31 -82 -10 -27 -26 -65 -37 -83 -25 -41 -17 -64 18 -60 28 3 36 13
51 63 8 29 11 30 68 30 52 0 60 -3 63 -20 8 -51 13 -64 33 -70 11 -4 26 -1 34
5 12 10 11 19 -7 58 -11 26 -33 88 -50 137 -47 141 -68 162 -107 106z m52
-106 c26 -54 22 -65 -19 -65 l-36 0 7 43 c12 70 23 75 48 22z"/>
<path d="M10364 20319 c-11 -19 -8 -309 4 -321 6 -6 18 -8 28 -4 14 6 16 18 9
110 -4 66 -3 106 3 110 6 3 39 -42 75 -101 69 -115 88 -134 112 -118 13 8 16
36 16 155 1 190 2 180 -21 180 -33 0 -39 -28 -28 -128 6 -51 8 -95 4 -99 -7
-7 -46 25 -46 38 0 14 -92 163 -108 177 -20 15 -39 16 -48 1z"/>
<path d="M10710 20321 l-35 -6 0 -160 0 -160 84 -3 c73 -2 88 0 116 20 45 30
65 76 65 148 0 128 -85 187 -230 161z m141 -80 c24 -25 29 -37 29 -81 0 -28
-5 -60 -10 -71 -15 -26 -62 -49 -105 -49 l-35 0 0 108 c0 60 3 112 7 115 3 4
24 7 45 7 30 0 46 -7 69 -29z"/>
<path d="M11091 20308 c-11 -29 3 -48 35 -48 28 0 38 14 30 46 -9 32 -53 34
-65 2z"/>
<path d="M12380 20301 c0 -23 5 -30 23 -33 22 -3 22 -6 25 -155 l3 -152 -25
-7 c-57 -14 -32 -57 31 -52 l38 3 0 210 0 210 -47 3 c-47 3 -48 3 -48 -27z"/>
<path d="M9804 20289 c-10 -12 -29 -25 -42 -30 -24 -9 -39 -35 -28 -46 4 -4
19 -7 34 -8 l27 0 5 -105 5 -105 30 0 29 0 -2 150 c-1 83 -2 153 -2 158 0 15
-38 6 -56 -14z"/>
<path d="M6844 20229 c-4 -6 -8 -60 -9 -120 -3 -109 -3 -109 22 -115 27 -7 47
11 38 34 -3 8 -5 58 -5 113 0 91 -2 99 -19 99 -11 0 -23 -5 -27 -11z"/>
<path d="M6944 20227 c-2 -7 -3 -62 -2 -123 3 -101 4 -109 23 -109 18 0 20 8
23 83 3 75 5 84 27 98 46 30 55 15 55 -91 l0 -96 28 3 c27 3 27 3 30 90 2 75
6 89 22 98 14 8 26 7 41 -1 20 -10 21 -17 16 -95 -5 -76 -4 -83 13 -89 11 -4
24 -4 28 -1 5 3 7 51 6 107 -2 79 -7 106 -20 120 -21 23 -80 25 -104 4 -15
-14 -18 -14 -30 0 -14 17 -81 20 -97 4 -8 -8 -13 -8 -17 0 -10 15 -36 14 -42
-2z"/>
<path d="M7328 20221 c-21 -21 -24 -71 -5 -71 8 0 22 9 32 20 23 25 78 24 83
-1 2 -13 -12 -22 -60 -36 -77 -23 -99 -52 -79 -101 17 -41 59 -56 109 -39 26
9 45 10 65 3 37 -14 58 6 34 32 -13 14 -17 38 -17 96 0 68 -3 80 -22 97 -31
25 -116 25 -140 0z m112 -138 c0 -43 -64 -70 -90 -38 -17 20 -6 42 22 48 51
10 68 7 68 -10z"/>
<path d="M7566 20210 c-26 -31 -43 -103 -32 -138 4 -11 16 -32 27 -46 18 -22
28 -26 75 -26 59 0 69 -13 36 -43 -24 -22 -40 -21 -76 2 -33 22 -56 18 -56
-10 0 -26 44 -52 88 -52 94 0 105 20 107 190 2 145 -3 165 -34 146 -13 -8 -22
-9 -26 -3 -3 6 -24 10 -45 10 -30 0 -43 -6 -64 -30z m101 -35 c30 -21 37 -59
17 -100 -21 -45 -49 -53 -80 -24 -17 16 -24 33 -24 58 0 41 6 53 35 69 26 15
27 15 52 -3z"/>
<path d="M7814 20209 c-26 -27 -29 -37 -29 -99 0 -58 4 -72 23 -93 31 -32 63
-40 112 -27 41 11 65 40 57 69 -2 10 2 26 9 36 18 24 18 45 -1 82 -35 70 -120
85 -171 32z m94 -25 c15 -4 22 -14 22 -30 0 -22 -4 -24 -44 -24 -50 0 -69 23
-39 46 20 15 29 16 61 8z m42 -103 c0 -14 -50 -51 -68 -51 -20 0 -52 29 -52
47 0 9 16 13 60 13 33 0 60 -4 60 -9z"/>
<path d="M8511 20214 c-25 -32 -27 -50 -4 -58 10 -4 24 2 35 14 24 26 81 24
86 -2 2 -12 -11 -20 -55 -33 -32 -9 -66 -24 -75 -32 -38 -34 -9 -113 42 -113
73 0 150 7 156 13 4 3 -1 18 -10 32 -12 18 -16 43 -14 94 4 91 -12 111 -88
111 -45 0 -56 -4 -73 -26z m114 -134 c0 -32 -47 -60 -72 -44 -29 18 -22 45 17
59 45 16 55 13 55 -15z"/>
<path d="M8751 20210 c-28 -29 -31 -37 -31 -94 0 -51 4 -68 23 -89 19 -23 31
-27 75 -27 43 0 52 -3 52 -18 0 -10 -5 -23 -12 -30 -17 -17 -63 -15 -78 3 -16
19 -60 20 -60 2 0 -30 38 -50 97 -50 53 0 59 3 85 34 28 34 29 34 26 163 l-3
129 -71 4 c-69 3 -73 2 -103 -27z m93 -30 c24 -9 26 -15 26 -65 0 -47 -3 -57
-24 -70 -31 -21 -58 -8 -76 35 -14 34 0 83 29 100 20 12 15 12 45 0z"/>
<path d="M11101 20226 c-8 -9 -11 -49 -9 -122 l3 -109 28 -3 28 -3 -3 123 c-3
103 -6 123 -19 126 -9 1 -21 -4 -28 -12z"/>
<path d="M11207 20233 c-3 -5 -7 -56 -8 -115 -4 -112 4 -137 37 -124 14 5 16
16 11 65 -7 77 0 106 29 121 19 11 26 11 40 -1 13 -11 16 -27 12 -91 -5 -90 0
-103 37 -94 27 7 27 8 20 70 -8 77 0 112 28 120 38 10 49 -11 46 -93 -3 -83 2
-101 32 -101 22 0 21 -4 19 120 -1 70 -6 100 -17 113 -20 21 -86 23 -103 2
-12 -14 -15 -14 -36 0 -27 17 -80 20 -90 4 -4 -8 -9 -8 -17 0 -13 13 -34 14
-40 4z"/>
<path d="M11581 20214 c-12 -15 -21 -33 -21 -41 0 -23 27 -26 49 -4 24 24 63
27 80 7 15 -18 -1 -30 -63 -45 -54 -13 -75 -33 -76 -69 -1 -62 45 -89 115 -68
26 8 47 10 51 5 3 -5 14 -9 25 -9 22 0 39 32 21 38 -8 2 -12 32 -12 86 0 73
-3 85 -23 104 -18 17 -36 22 -74 22 -44 0 -55 -4 -72 -26z m116 -131 c7 -21
-36 -54 -65 -51 -37 4 -39 49 -2 59 34 10 63 6 67 -8z"/>
<path d="M11829 20222 c-48 -50 -57 -138 -20 -190 20 -29 27 -32 76 -32 62 0
72 -9 44 -38 -23 -26 -47 -28 -75 -7 -23 18 -64 20 -64 3 2 -64 130 -84 182
-29 16 18 18 38 18 166 0 112 -3 145 -13 145 -7 0 -18 -5 -24 -11 -8 -8 -13
-8 -17 0 -11 17 -89 12 -107 -7z m90 -42 c11 0 31 -47 31 -74 0 -22 -40 -76
-57 -76 -5 0 -19 7 -31 16 -32 22 -32 106 0 129 13 8 29 13 36 10 8 -3 17 -5
21 -5z"/>
<path d="M12073 20218 c-31 -34 -46 -100 -33 -145 13 -49 30 -70 65 -83 60
-23 145 22 132 71 -3 12 1 32 9 44 13 19 12 26 -2 60 -22 54 -50 74 -105 75
-35 0 -50 -5 -66 -22z m102 -42 c32 -23 12 -46 -40 -46 -38 0 -45 3 -45 20 0
35 51 51 85 26z m25 -92 c10 -4 6 -11 -15 -29 -37 -30 -55 -31 -83 -5 -24 23
-28 36 -11 42 13 4 88 -1 109 -8z"/>
<path d="M9086 20183 c-3 -3 -6 -17 -6 -30 0 -23 1 -23 114 -23 90 0 116 3
126 15 8 10 10 19 4 25 -11 11 -228 23 -238 13z"/>
<path d="M9348 20179 c-6 -4 -7 -16 -3 -28 6 -20 13 -21 110 -21 93 0 105 2
115 19 7 15 7 22 -2 28 -15 9 -205 11 -220 2z"/>
<path d="M9082 20063 l3 -28 115 0 115 0 3 28 3 27 -121 0 -121 0 3 -27z"/>
<path d="M9344 20075 c-4 -8 -1 -22 6 -30 10 -13 33 -15 114 -13 l101 3 3 28
3 27 -111 0 c-89 0 -112 -3 -116 -15z"/>
<path d="M8001 19971 c-8 -5 -11 -16 -8 -25 5 -13 25 -16 121 -16 63 0 121 3
130 6 21 8 21 30 0 38 -24 9 -227 7 -243 -3z"/>
<path d="M6651 16366 c-8 -9 -11 -74 -9 -212 l3 -198 39 -8 c25 -5 43 -4 52 3
20 16 17 27 -12 54 -25 23 -25 27 -25 154 0 72 0 135 1 140 0 5 9 12 19 16 25
7 35 34 20 51 -15 18 -73 18 -88 0z"/>
<path d="M8407 16363 c-9 -10 -20 -36 -26 -58 -23 -91 -34 -131 -42 -140 -4
-5 -10 -27 -14 -48 -4 -20 -11 -40 -16 -43 -16 -10 -9 -33 11 -39 25 -8 50 10
50 36 0 11 4 27 9 37 5 9 19 51 32 92 12 41 28 89 36 105 27 56 -3 99 -40 58z"/>
<path d="M8582 16371 c-8 -4 -12 -19 -10 -32 2 -19 9 -24 33 -24 27 0 30 3 30
30 0 22 -5 31 -20 33 -11 1 -26 -2 -33 -7z"/>
<path d="M10036 16359 c-15 -12 -26 -30 -26 -45 0 -14 -7 -27 -15 -30 -8 -4
-15 -12 -15 -19 0 -7 7 -18 15 -25 11 -9 15 -35 15 -106 l0 -94 30 0 30 0 0
96 c0 80 3 99 18 110 16 13 16 15 -3 29 -16 13 -17 18 -7 33 20 28 24 41 18
57 -8 21 -29 19 -60 -6z"/>
<path d="M11553 16373 c-22 -8 -14 -43 12 -53 l25 -10 0 -149 0 -149 -25 -6
c-33 -8 -35 -51 -3 -59 27 -7 70 2 80 17 4 6 8 97 8 203 0 180 -1 193 -19 203
-20 10 -57 12 -78 3z"/>
<path d="M7128 16363 c-2 -5 -2 -79 0 -166 l4 -158 26 3 26 3 2 163 2 162 -28
0 c-16 0 -30 -3 -32 -7z"/>
<path d="M10128 16215 c-2 -85 -1 -160 0 -165 2 -6 15 -10 28 -10 l24 0 2 130
c1 72 2 145 2 163 1 28 -3 32 -26 35 l-27 3 -3 -156z"/>
<path d="M11264 16356 c-37 -20 -52 -42 -69 -99 -15 -52 -15 -62 -1 -117 19
-75 53 -110 105 -110 48 0 79 23 102 77 39 91 14 202 -54 243 -36 22 -52 23
-83 6z m72 -67 c15 -17 19 -36 19 -96 0 -67 -2 -76 -25 -93 -33 -26 -41 -25
-64 7 -15 20 -20 42 -19 88 1 98 44 144 89 94z"/>
<path d="M6918 16270 c-33 -25 -39 -70 -10 -70 11 0 27 9 37 20 26 29 79 24
83 -7 3 -21 -1 -23 -38 -23 -38 0 -85 -21 -102 -45 -4 -5 -8 -24 -8 -42 0 -57
77 -94 125 -60 15 12 23 12 46 0 16 -8 33 -12 39 -8 13 8 13 38 0 51 -5 5 -11
44 -13 87 -4 93 -15 108 -84 114 -39 4 -53 1 -75 -17z m112 -137 c0 -44 -64
-70 -91 -37 -11 14 -9 19 11 35 32 24 80 25 80 2z"/>
<path d="M7342 16277 c-6 -7 -17 -39 -24 -71 -7 -31 -17 -57 -22 -57 -6 0 -17
28 -25 63 -13 51 -20 63 -36 63 -23 0 -24 -19 -1 -105 8 -30 18 -71 23 -90 7
-28 14 -36 35 -38 23 -3 28 2 37 35 6 21 11 53 11 71 0 17 4 32 10 32 12 0 34
-52 44 -102 6 -34 10 -38 36 -38 25 0 30 4 30 24 0 14 5 37 11 53 6 15 17 48
24 73 7 25 16 55 20 68 7 19 4 22 -23 22 -28 0 -30 -3 -36 -49 -7 -54 -38 -95
-50 -66 -3 9 -6 36 -6 60 0 34 -5 47 -19 55 -25 13 -26 13 -39 -3z"/>
<path d="M7576 16269 c-15 -12 -26 -30 -26 -45 0 -29 20 -31 45 -4 22 24 70
27 79 4 9 -23 -2 -34 -34 -34 -39 0 -99 -37 -106 -65 -7 -27 18 -80 41 -89 26
-10 58 -7 85 7 21 11 29 11 46 0 39 -25 73 8 39 37 -11 9 -15 33 -15 90 0 73
-2 80 -26 99 -16 13 -41 21 -64 21 -23 0 -48 -8 -64 -21z m108 -128 c3 -5 -4
-20 -15 -35 -23 -29 -60 -34 -80 -10 -11 14 -9 19 11 35 26 19 75 25 84 10z"/>
<path d="M7764 16276 c-3 -8 0 -24 6 -37 7 -12 16 -34 20 -48 5 -14 18 -51 29
-81 28 -73 27 -87 -10 -105 -38 -20 -38 -58 1 -63 36 -4 64 30 90 113 13 39
27 74 32 80 4 5 8 16 8 25 0 8 7 28 15 44 17 32 20 72 5 81 -17 10 -50 -15
-50 -38 0 -29 -32 -117 -42 -117 -5 0 -10 6 -12 13 -2 6 -9 32 -16 57 -20 76
-28 90 -50 90 -11 0 -23 -6 -26 -14z"/>
<path d="M8026 16269 c-19 -15 -26 -30 -26 -54 0 -38 9 -47 70 -71 56 -21 62
-27 54 -47 -9 -25 -54 -21 -85 9 -48 46 -71 -5 -24 -51 34 -35 102 -35 144 1
30 25 41 65 23 89 -8 12 -78 43 -107 47 -12 2 -20 11 -20 23 0 29 38 31 74 4
31 -23 51 -19 51 11 0 28 -47 60 -90 60 -23 0 -48 -8 -64 -21z"/>
<path d="M8756 16283 c-4 -4 -22 -6 -41 -5 l-34 3 -3 -113 c-3 -115 5 -144 37
-132 12 5 15 25 15 89 0 67 3 85 18 98 24 22 48 22 56 0 4 -9 6 -52 5 -96 -1
-43 2 -82 7 -87 5 -5 20 -7 33 -3 23 6 24 8 18 84 -5 67 -4 81 13 101 15 19
22 21 37 12 15 -9 18 -27 21 -102 2 -70 6 -91 18 -96 29 -11 34 5 34 108 0 89
-3 105 -20 124 -24 26 -66 29 -98 6 -20 -14 -24 -14 -44 0 -23 17 -60 21 -72
9z"/>
<path d="M9090 16283 c-26 -11 -40 -31 -40 -57 0 -31 20 -34 45 -6 22 24 70
27 79 4 9 -22 -1 -34 -29 -34 -56 0 -115 -43 -115 -84 0 -12 12 -36 26 -51 22
-24 31 -27 66 -22 23 3 45 11 49 19 7 10 11 10 21 0 14 -14 68 -17 68 -3 0 5
-7 14 -15 21 -11 9 -15 34 -15 95 0 78 -2 85 -26 104 -26 20 -80 27 -114 14z
m94 -142 c3 -5 -4 -20 -15 -35 -23 -29 -60 -34 -80 -10 -11 14 -10 19 10 35
24 20 76 26 85 10z"/>
<path d="M9322 16275 c-32 -23 -52 -68 -52 -115 0 -80 41 -123 113 -117 51 4
61 -7 29 -36 -23 -21 -52 -22 -78 -2 -50 38 -77 -6 -26 -45 35 -28 108 -24
140 8 18 18 21 34 23 164 l3 143 -29 3 c-17 1 -46 5 -65 8 -24 3 -42 0 -58
-11z m85 -57 c30 -28 31 -83 1 -115 -43 -46 -88 -17 -88 57 0 38 5 51 23 63
30 21 37 21 64 -5z"/>
<path d="M9580 16283 c-45 -18 -75 -108 -58 -171 14 -52 50 -82 98 -82 68 0
126 70 88 108 -9 9 -8 12 4 12 40 0 21 81 -28 119 -26 20 -72 26 -104 14z m71
-53 c38 -21 23 -40 -31 -40 -53 0 -64 12 -32 36 21 16 37 17 63 4z m24 -103
c0 -10 -12 -26 -27 -35 -23 -14 -30 -14 -52 -2 -17 8 -26 22 -26 37 0 23 3 24
53 21 42 -2 52 -6 52 -21z"/>
<path d="M10258 16270 c-29 -22 -37 -54 -17 -65 6 -4 21 2 33 14 26 24 68 28
86 6 17 -20 4 -35 -31 -35 -16 0 -48 -9 -69 -20 -36 -19 -40 -24 -40 -59 0
-63 65 -101 121 -70 14 7 29 7 49 0 38 -13 54 4 35 39 -8 14 -14 55 -15 96 0
89 -11 105 -76 111 -40 4 -54 1 -76 -17z m111 -135 c4 -22 -35 -54 -66 -55
-13 0 -24 8 -28 21 -8 25 -8 24 35 43 41 18 54 16 59 -9z"/>
<path d="M10509 16278 c-36 -29 -49 -63 -49 -123 0 -55 3 -64 29 -90 26 -24
36 -27 71 -22 32 4 43 2 47 -10 13 -34 -62 -58 -87 -28 -18 22 -60 20 -60 -3
0 -43 86 -75 142 -53 54 21 68 61 68 204 l0 127 -29 0 c-15 0 -48 3 -72 6 -29
4 -49 1 -60 -8z m83 -55 c24 -21 25 -99 1 -125 -52 -58 -117 39 -74 110 23 36
45 40 73 15z"/>
<path d="M8579 16278 c-1 -2 -3 -54 -4 -116 -2 -102 -1 -114 16 -123 11 -5 24
-7 29 -4 6 4 10 58 10 126 l0 119 -25 0 c-14 0 -26 -1 -26 -2z"/>
<path d="M10816 16221 c-4 -5 -3 -16 0 -25 5 -13 25 -16 118 -16 112 0 140 8
129 36 -4 11 -32 14 -123 14 -66 0 -121 -4 -124 -9z"/>
<path d="M10820 16125 c-25 -30 3 -39 121 -38 114 2 141 11 117 40 -16 20
-221 18 -238 -2z"/>
<path d="M9741 16012 c-18 -34 6 -42 124 -42 118 0 142 8 124 42 -9 16 -23 18
-124 18 -101 0 -115 -2 -124 -18z"/>
</g>
</svg>
